<?xml version="1.0" encoding="UTF-8" standalone="no"?>
<!-- Created with Inkscape (http://www.inkscape.org/) -->

<svg
   width="60.387054mm"
   height="59.732094mm"
   viewBox="0 0 60.387057 59.732094"
   version="1.1"
   id="svg1"
   xml:space="preserve"
   xmlns="http://www.w3.org/2000/svg"
   xmlns:svg="http://www.w3.org/2000/svg"><defs
     id="defs1" /><g
     id="layer7"
     transform="matrix(0.26458333,0,0,0.26458333,912.36399,-54.731411)"><g
       id="g1666"><g
         id="g1662"><g
           id="g1657"
           transform="matrix(0.6092579,0.59531665,-0.59531665,0.6092579,-4837.7167,-1833.8718)"
           style="fill:#43af68;fill-opacity:1"><path
             id="path111-2-1"
             style="fill:#43af68;fill-opacity:1;stroke:#161616;stroke-width:0;stroke-linecap:butt;stroke-linejoin:miter;stroke-miterlimit:10;stroke-dasharray:none;stroke-opacity:1"
             d="m 3028.7891,505.83625 v 0 0 l 77.5122,-23.7583 h -77.5122 v 0 h -77.5126 z m -3.7447,5.037 -86.4242,-26.8216 28.0429,84.0216 z m 3.7447,3.3676 v 0 l -59.367,60.2305 59.367,60.2317 v 0 0 -4e-4 l 59.3661,-60.2317 -59.3661,-60.2305 v 0 z m 62.1306,53.8324 28.0424,-84.0216 -86.4267,26.8216 z m -62.1285,75.0393 v 0 9e-4 l -77.5126,23.7591 h 77.5126 v 0 h 77.5122 l -77.5122,-23.7591 z m -65.6808,-68.6371 c 0,0 -26.431,-81.7478 -26.431,-82.932 v 82.932 82.9304 c 0,-1.1838 26.431,-82.9304 26.431,-82.9304 z m -24.4902,90.4246 86.4242,-26.8241 -58.3813,-57.1983 z m 182.2798,-7.4942 c 0.6748,-10.8925 1.239,-40.926 1.5451,-77.5214 0.25,-29.888 -0.6285,-59.2405 -1.5451,-88.341 0,1.1842 -26.431,82.932 -26.431,82.932 0,0 26.431,81.7466 26.431,82.9304 z m -88.3646,-19.3299 86.4267,26.8241 -28.0424,-84.0224 z m 75.0976,34.4697 -153.9644,-0.4202 c -23.2299,-0.063 -24.9542,-3.7977 -24.2983,-27.0183 0.48,-16.9967 1.7204,-8.5761 1.4446,-24.6676 -0.053,-3.1126 -3.1605,-25.5549 -3.0657,-29.1549 0.684,-25.9867 4.5465,-63.9528 5.5107,-104.4299 0.1865,-7.8276 11.7289,-12.9027 20.4182,-12.7643 46.9418,0.7477 83.4746,9.2657 141.9058,1.4364 23.0241,-3.0851 34.1057,3.6581 34.0551,18.5533 -0.1586,46.6603 -9.9668,40.4183 0.08,143.0285 1.3665,13.956 -1.0257,29.0574 -8.432,32.4033 -4.8629,2.1969 -4.4467,3.0588 -13.654,3.0337 z" /></g></g></g></g></svg>
