<?xml version="1.0" encoding="UTF-8" standalone="no"?>
<!-- Created with Inkscape (http://www.inkscape.org/) -->

<svg
   width="27.779259mm"
   height="27.779259mm"
   viewBox="0 0 27.77926 27.779259"
   version="1.1"
   id="svg1"
   xml:space="preserve"
   xmlns="http://www.w3.org/2000/svg"
   xmlns:svg="http://www.w3.org/2000/svg"><defs
     id="defs1" /><g
     id="layer7"
     transform="matrix(0.26458333,0,0,0.26458333,902.25238,-11.035052)"><g
       id="g17"><circle
         style="fill:#393d3f;fill-opacity:1;stroke:none;stroke-width:0.694481;stroke-linejoin:bevel;stroke-dasharray:none"
         id="path3-3-5-5-8-9-4-7"
         cx="-3357.5916"
         cy="94.203522"
         r="52.496239" /><path
         id="path208-4-9-9-2-3-85"
         d="m -3388.3505,105.45277 8.1693,8.55918 z m 47.1205,-32.08476 c -3.7606,-5.80259 -3.1832,-5.72368 -7.8492,-8.8489 l -9.5237,-0.98961 c -8.9062,2.65723 -16.4572,1.77343 -26.7184,7.97167 -0.8538,2.22405 -0.4751,5.20508 -0.7725,6.62218 -0.8064,3.84014 -0.9603,4.18887 -1.4228,7.5304 -0.7824,0.34476 0.6806,2.01605 -1.326,3.37858 -1.0728,0.72839 -3.1212,0.24039 -4.1363,1.33882 l -1.4695,2.04223 -1.8742,3.3782 c 1.2742,9.55864 3.5858,5.9953 5.3797,8.98064 5.0584,3.76597 8.3051,7.19935 10.696,10.72874 3.1239,0.59361 6.0876,1.37407 9.3732,1.77868 l 2.5553,-0.0848 7.4131,-0.3048 7.0483,1.03076 5.3533,-1.13436 c 2.2548,-2.20072 2.3303,-1.60344 5.3054,-3.42902 1.6349,-1.60815 1.42,-6.05525 4.3575,-9.23592 l 6.7617,-4.3463 c 0.5124,-0.44703 4.016,-6.16214 5.432,-9.43265 1.6685,-3.85387 1.3362,-5.55239 2.8771,-9.29023 -2.8638,-1.73878 -5.9498,-0.92086 -8.5905,-5.23161 z m -38.6331,37.35052 8.1693,8.55918 z m 47.1206,-32.08476 c -3.7607,-5.8026 -3.1831,-5.72369 -7.8493,-8.84892 l -9.5237,-0.98959 c -8.9061,2.65723 -16.4572,1.77342 -26.7184,7.97167 -0.8536,2.22405 -0.475,5.20506 -0.7725,6.62217 -0.8062,3.84015 -0.9603,4.18887 -1.4228,7.53042 -0.7822,0.34474 0.6806,2.01602 -1.326,3.37858 -1.0727,0.72838 -3.1211,0.24036 -4.1363,1.3388 l -1.4694,2.04224 -1.8742,3.37818 c 1.2741,9.55864 3.5858,5.99532 5.3798,8.98066 5.0583,3.76597 8.3051,7.19934 10.6959,10.72873 3.1238,0.59361 6.0876,1.37408 9.3732,1.77869 l 2.5553,-0.0848 7.413,-0.3048 7.0484,1.03077 5.3532,-1.13438 c 2.2548,-2.20071 2.3303,-1.60344 5.3054,-3.42902 1.635,-1.60815 1.4201,-6.05523 4.3577,-9.23591 l 6.7615,-4.34629 c 0.5124,-0.44703 4.016,-6.16215 5.432,-9.43265 1.6686,-3.85387 1.3363,-5.5524 2.8772,-9.29023 -2.8639,-1.73878 -5.9498,-0.92086 -8.5906,-5.23162 z"
         style="fill:#ffffff;fill-opacity:1;stroke:none;stroke-width:0;stroke-linecap:butt;stroke-linejoin:miter;stroke-miterlimit:10;stroke-dasharray:none;stroke-opacity:1" /><path
         id="path208-4-9-9-2-3-8-7"
         d="m -3375.5676,100.70268 4.9608,5.19763 z m 28.6142,-19.48377 c -2.2835,-3.52368 -1.9328,-3.47576 -4.7663,-5.37359 l -5.7834,-0.60093 c -5.4083,1.61361 -9.9937,1.07691 -16.225,4.84087 -0.5184,1.35056 -0.2885,3.16082 -0.4692,4.02137 -0.4895,2.33197 -0.583,2.54372 -0.864,4.57291 -0.4749,0.20935 0.4134,1.22426 -0.8051,2.05167 -0.6515,0.44233 -1.8954,0.14598 -2.5118,0.81301 l -0.8924,1.24017 -1.1382,2.05144 c 0.7738,5.80457 2.1776,3.64069 3.267,5.45358 3.0717,2.28692 5.0433,4.37187 6.4952,6.51512 1.8969,0.36047 3.6968,0.83441 5.6919,1.08013 l 1.5518,-0.0515 4.5016,-0.18508 4.2801,0.62594 3.2508,-0.68886 c 1.3694,-1.33641 1.4151,-0.9737 3.2218,-2.0823 0.9929,-0.97658 0.8623,-3.67711 2.6463,-5.6086 l 4.106,-2.63933 c 0.3112,-0.27146 2.4387,-3.74202 3.2987,-5.72806 1.0133,-2.34031 0.8114,-3.37175 1.7472,-5.64158 -1.7392,-1.05591 -3.6132,-0.55921 -5.2168,-3.17696 z m -23.4601,22.68144 4.9608,5.19764 z m 28.6143,-19.48377 c -2.2837,-3.52368 -1.9329,-3.47576 -4.7664,-5.37359 l -5.7833,-0.60093 c -5.4084,1.61363 -9.9939,1.07693 -16.2251,4.84088 -0.5184,1.35057 -0.2885,3.16081 -0.4692,4.02137 -0.4896,2.33196 -0.583,2.54373 -0.8639,4.57291 -0.4751,0.20936 0.4133,1.22425 -0.8053,2.05167 -0.6514,0.44233 -1.8953,0.14597 -2.5118,0.813 l -0.8922,1.24018 -1.1383,2.05143 c 0.7738,5.80459 2.1776,3.64072 3.267,5.45358 3.0717,2.28692 5.0434,4.37187 6.4952,6.51514 1.8969,0.36047 3.6968,0.83442 5.6919,1.08011 l 1.5518,-0.0515 4.5016,-0.18508 4.2802,0.62593 3.2508,-0.68885 c 1.3691,-1.33641 1.4151,-0.9737 3.2217,-2.08231 0.993,-0.97655 0.8624,-3.6771 2.6463,-5.6086 l 4.106,-2.63931 c 0.3111,-0.27146 2.4388,-3.74203 3.2987,-5.72808 1.0132,-2.3403 0.8114,-3.37174 1.7472,-5.64157 -1.7391,-1.05589 -3.6132,-0.55921 -5.2168,-3.17695 z"
         style="font-variation-settings:normal;vector-effect:none;fill:#393d3f;fill-opacity:1;stroke:none;stroke-width:0;stroke-linecap:butt;stroke-linejoin:miter;stroke-miterlimit:10;stroke-dasharray:none;stroke-dashoffset:0;stroke-opacity:1;-inkscape-stroke:none;stop-color:#000000" /></g></g></svg>
