<?xml version="1.0" encoding="UTF-8" standalone="no"?>
<!-- Created with Inkscape (http://www.inkscape.org/) -->

<svg
   width="28.786283mm"
   height="28.786283mm"
   viewBox="0 0 28.786285 28.786284"
   version="1.1"
   id="svg1"
   xml:space="preserve"
   xmlns="http://www.w3.org/2000/svg"
   xmlns:svg="http://www.w3.org/2000/svg"><defs
     id="defs1" /><g
     id="layer7"
     transform="matrix(0.26458333,0,0,0.26458333,934.64407,-10.53154)"><g
       id="g16"><circle
         style="fill:#05b2dc;fill-opacity:1;stroke:none;stroke-width:0.719657;stroke-linejoin:bevel;stroke-dasharray:none"
         id="path3-3-6-0-4-2-4"
         cx="-3478.1138"
         cy="94.203522"
         r="54.399277" /><path
         id="path2-4"
         style="fill:#ffffff;stroke:none;stroke-width:0.86757;stroke-linejoin:bevel"
         d="m -3447.0033,94.20353 a 31.110313,29.673891 0 0 1 -31.1104,29.67389 31.110313,29.673891 0 0 1 -31.1103,-29.67389 31.110313,29.673891 0 0 1 31.1103,-29.67389 31.110313,29.673891 0 0 1 31.1104,29.67389 z" /><path
         id="path2-5-4"
         style="fill:#05b2dc;fill-opacity:1;stroke:none;stroke-width:0.554197;stroke-linejoin:bevel"
         d="m -3458.2406,94.20353 a 19.873184,18.955602 0 0 1 -19.8732,18.9556 19.873184,18.955602 0 0 1 -19.8731,-18.9556 19.873184,18.955602 0 0 1 19.8731,-18.95561 19.873184,18.955602 0 0 1 19.8732,18.95561 z" /></g></g></svg>
