<?xml version="1.0" encoding="UTF-8" standalone="no"?>
<!-- Created with Inkscape (http://www.inkscape.org/) -->

<svg
   width="61.289696mm"
   height="45.947643mm"
   viewBox="0 0 61.289699 45.947644"
   version="1.1"
   id="svg1"
   xml:space="preserve"
   xmlns="http://www.w3.org/2000/svg"
   xmlns:svg="http://www.w3.org/2000/svg"><defs
     id="defs1" /><g
     id="layer7"
     transform="matrix(0.26458333,0,0,0.26458333,983.94471,-61.235917)"><g
       id="g1651"><g
         id="g1660"><g
           id="g1659"><path
             id="path208-4-8"
             d="m -3523.6772,361.9793 -0.3019,-30.15576 26.1142,-32.62931 z m -42.1632,36.07634 2.7169,-25.04674 36.1618,-37.48628 0.3379,33.62047 -0.8065,1.96895 z m -127.5524,-32.76028 41.7525,16.86797 16.6742,14.51201 -32.3441,-4.05229 z m -19.9453,-30.0611 29.9039,-6.56461 -16.5494,28.85816 z m 26.2976,-31.05686 0.1505,-0.96871 25.1929,-14.31868 -19.7289,36.24727 -29.4412,6.46548 z m 6.3001,-40.61769 18.1066,22.39267 -23.6655,13.44911 z m 180.1498,21.96463 -29.106,-6.45647 4.6181,-8.46145 z m -25.5015,44.114 -25.8935,-6.77637 20.8157,-41.02768 36.8015,8.16408 z m -26.9434,-3.92886 24.8797,6.51056 -0.9687,1.20748 -33.0618,34.2648 z m -15.5787,72.80788 -32.5542,-15.23975 34.9316,-9.09275 z m -64.1774,-51.58216 25.9146,33.83993 -41.594,-1.34897 z m 66.8162,24.06421 -37.1754,9.67481 -27.3474,-35.70797 74.3269,-19.04499 -9.7996,45.01963 z m -26.3487,-113.80156 -66.6019,28.53826 -20.3931,-25.22215 79.2771,-23.64972 z m 2.2664,-2.53212 -6.7402,-17.75643 23.2217,2.49606 z m 57.374,23.56861 -55.8151,-20.90132 18.7792,-17.38247 42.0955,29.01583 z m -144.8387,46.04689 19.3744,-35.59849 67.5137,-28.92572 56.4907,21.15363 -0.1261,0.23429 0.058,0.0136 -20.7619,40.92404 -0.3425,-0.0901 -0.1395,0.62626 -77.0385,19.73892 -0.8846,-1.15349 -0.4685,0.97324 -44.3879,-16.5084 0.8092,-1.41024 z m -20.4971,35.88679 18.2624,-31.84531 44.593,16.58503 -16.4202,34.02281 z m 68.4228,37.18001 -17.1521,-14.9297 42.2374,1.45219 34.6687,16.91359 -58.0167,-3.21847 z m 106.0412,-132.09873 c -12.0068,-18.52647 -29.5543,-20.66866 -44.4519,-30.64687 l -30.4071,-3.15959 c -28.4356,8.48398 -52.5447,5.66218 -85.3067,25.45194 -2.7257,7.1009 -1.5166,16.61872 -2.4667,21.14324 -2.574,12.26081 -3.0657,13.37421 -4.5426,24.04308 -2.4977,1.10072 -5.7159,0.94937 -12.1228,5.29968 -3.425,2.32562 -2.0759,6.25492 -5.317,9.76199 l -4.6917,6.52045 -5.9842,10.78587 c 4.0681,30.5188 11.4488,19.1418 17.1765,28.67339 16.1502,12.02398 26.5166,22.98605 34.1503,34.25469 9.9737,1.89525 19.4364,4.38713 29.9266,5.67898 l 8.1583,-0.27079 23.6687,-0.97314 22.5036,3.29101 17.0919,-3.62182 c 7.1991,-7.02643 7.4401,-5.11944 16.9392,-10.94815 5.2201,-5.1345 16.9091,-6.29221 26.2883,-16.44746 l 9.2129,-26.91777 c 1.6359,-1.42728 12.8224,-19.67449 17.3435,-30.11655 5.3273,-12.30462 4.2662,-17.72768 9.1863,-29.66183 -9.144,-5.55159 -18.9968,-2.94012 -27.428,-16.70351 z"
             style="fill:#3e2a35;fill-opacity:1;stroke:#161616;stroke-width:0;stroke-linecap:butt;stroke-linejoin:miter;stroke-miterlimit:10;stroke-dasharray:none;stroke-opacity:1" /></g></g></g></g></svg>
